<svg xmlns="http://www.w3.org/2000/svg" xmlns:xlink="http://www.w3.org/1999/xlink"> <symbol id="go-back-arrow" viewBox="0 0 49.499 49.499"> <path d="M8.143,10.804C7.473,11.682,7,11.842,7,11.099V9.751c0-1.933-1.567-3.5-3.5-3.5S0,7.818,0,9.751v12c0,1.933,1.567,3.5,3.5,3.5h12c1.933,0,3.5-1.567,3.5-3.5s-1.567-3.5-3.5-3.5c0,0-0.579,0-1.294,0s-0.916-0.817-0.31-1.74c2.752-4.187,7.47-6.795,12.569-6.795c8.29,0,15.034,6.744,15.034,15.034c0,8.289-6.744,15.033-15.034,15.033c-2.209,0-4,1.791-4,4s1.791,4,4,4c12.701,0.001,23.034-10.332,23.034-23.032c0-12.701-10.333-23.034-23.034-23.034C19.204,1.716,12.445,5.167,8.143,10.804z"/> </symbol> <symbol id="t-icon" viewBox="0 0 278 278"> <path d="M254.833,0h-98.5h-33h-99.5C15.549,0,8.5,6.716,8.5,15v33c0,8.284,6.716,15,15,15s15-6.716,15-15V30h69v218H89.833c-8.284,0-15,6.716-15,15s6.716,15,15,15h99c8.284,0,15-6.716,15-15s-6.716-15-15-15H170.5V30h69v18c0,8.284,6.716,15,15,15s15-6.716,15-15V15C269.5,6.716,263.117,0,254.833,0z"/> </symbol> <symbol id="paragraph" viewBox="0 0 511.998 511.998"> <g> <path d="m406.998 480.999h-180c-8.291 0-15-6.709-15-15v-60c0-8.291 6.709-15 15-15h45v-270h-60v45c0 8.291-6.709 15-15 15h-60c-8.291 0-15-6.709-15-15v-120c0-8.291 6.709-15 15-15h360c8.291 0 15 6.709 15 15v120c0 8.291-6.709 15-15 15h-60c-8.291 0-15-6.709-15-15v-45h-60v270h45c8.291 0 15 6.709 15 15v60c0 8.291-6.709 15-15 15z"/> </g> <path d="m148.225 368.924c-2.607-4.878-7.69-7.925-13.228-7.925h-45v-315c0-8.291-6.709-15-15-15s-15 6.709-15 15v315h-45c-5.537 0-10.62 3.047-13.228 7.925s-2.314 10.796.747 15.396l60 90c2.783 4.175 7.471 6.68 12.48 6.68s9.697-2.505 12.48-6.68l60-90c3.064-4.6 3.357-10.518.749-15.396z"/> </symbol> <symbol id="image" xmlns="http://www.w3.org/2000/svg" xmlns:xlink="http://www.w3.org/1999/xlink" viewBox="0 0 512 512"> <path d="M446.575,0H65.425C29.349,0,0,29.35,0,65.426v381.149C0,482.65,29.349,512,65.425,512h381.15C482.651,512,512,482.65,512,446.574V65.426C512,29.35,482.651,0,446.575,0z M481.842,446.575c0,19.447-15.821,35.267-35.267,35.267H65.425c-19.447,0-35.268-15.821-35.268-35.267v-55.007l99.255-84.451c3.622-3.082,8.906-3.111,12.562-0.075l62.174,51.628c5.995,4.977,14.795,4.569,20.304-0.946L372.181,209.77c2.67-2.675,5.783-2.935,7.408-2.852c1.62,0.083,4.695,0.661,7.078,3.596l95.176,117.19V446.575z M481.842,279.865l-71.766-88.366c-7.117-8.764-17.666-14.122-28.942-14.701c-11.268-0.57-22.317,3.672-30.294,11.662L212.832,326.681l-51.59-42.839c-14.959-12.422-36.563-12.293-51.373,0.308l-79.712,67.822V65.426c0-19.447,15.821-35.268,35.268-35.268h381.15c19.447,0,35.267,15.821,35.267,35.268V279.865z"/> <path d="M161.174,62.995c-40.095,0-72.713,32.62-72.713,72.713c0,40.094,32.619,72.713,72.713,72.713s72.713-32.619,72.713-72.713S201.269,62.995,161.174,62.995z M161.174,178.264c-23.466,0-42.556-19.091-42.556-42.556c0-23.466,19.09-42.556,42.556-42.556c23.466,0,42.556,19.091,42.556,42.556S184.64,178.264,161.174,178.264z"/></symbol></svg>
