<svg xmlns="http://www.w3.org/2000/svg" xmlns:xlink="http://www.w3.org/1999/xlink">
    <symbol id="go-back-arrow" viewBox="0 0 49.499 49.499">
        <path d="M8.143,10.804C7.473,11.682,7,11.842,7,11.099V9.751c0-1.933-1.567-3.5-3.5-3.5S0,7.818,0,9.751v12c0,1.933,1.567,3.5,3.5,3.5h12c1.933,0,3.5-1.567,3.5-3.5s-1.567-3.5-3.5-3.5c0,0-0.579,0-1.294,0s-0.916-0.817-0.31-1.74c2.752-4.187,7.47-6.795,12.569-6.795c8.29,0,15.034,6.744,15.034,15.034c0,8.289-6.744,15.033-15.034,15.033c-2.209,0-4,1.791-4,4s1.791,4,4,4c12.701,0.001,23.034-10.332,23.034-23.032c0-12.701-10.333-23.034-23.034-23.034C19.204,1.716,12.445,5.167,8.143,10.804z"/>
    </symbol>
    <symbol id="image" viewBox="0 0 512 512">
        <path d="M446.575,0H65.425C29.349,0,0,29.35,0,65.426v381.149C0,482.65,29.349,512,65.425,512h381.15C482.651,512,512,482.65,512,446.574V65.426C512,29.35,482.651,0,446.575,0z M481.842,446.575c0,19.447-15.821,35.267-35.267,35.267H65.425c-19.447,0-35.268-15.821-35.268-35.267v-55.007l99.255-84.451c3.622-3.082,8.906-3.111,12.562-0.075l62.174,51.628c5.995,4.977,14.795,4.569,20.304-0.946L372.181,209.77c2.67-2.675,5.783-2.935,7.408-2.852c1.62,0.083,4.695,0.661,7.078,3.596l95.176,117.19V446.575z M481.842,279.865l-71.766-88.366c-7.117-8.764-17.666-14.122-28.942-14.701c-11.268-0.57-22.317,3.672-30.294,11.662L212.832,326.681l-51.59-42.839c-14.959-12.422-36.563-12.293-51.373,0.308l-79.712,67.822V65.426c0-19.447,15.821-35.268,35.268-35.268h381.15c19.447,0,35.267,15.821,35.267,35.268V279.865z"/>
        <path d="M161.174,62.995c-40.095,0-72.713,32.62-72.713,72.713c0,40.094,32.619,72.713,72.713,72.713s72.713-32.619,72.713-72.713S201.269,62.995,161.174,62.995z M161.174,178.264c-23.466,0-42.556-19.091-42.556-42.556c0-23.466,19.09-42.556,42.556-42.556c23.466,0,42.556,19.091,42.556,42.556S184.64,178.264,161.174,178.264z"/>
    </symbol>
    <symbol id="paragraph" viewBox="0 0 512 512">
        <path d="m319.996094 16h128v496h-128zm0 0"/>
        <path d="m159.996094 288h-10.910156c-76.625 0-143.632813-57.679688-148.753907-134.128906-5.632812-83.839844 60.992188-153.871094 143.664063-153.871094h352c8.832031 0 16 7.167969 16 16s-7.167969 16-16 16h-348.09375c-56.929688 0-107.714844 40.800781-114.960938 97.265625-8.769531 68.285156 44.445313 126.734375 111.054688 126.734375h16zm0 0"/>
        <path d="m191.996094 256h32v32h-32zm0 0"/>
        <path d="m255.996094 256h32v32h-32zm0 0"/>
    </symbol>
    <symbol id="heading-1" viewBox="0 0 512 512">
        <path d="m112 240h192v32h-192zm0 0"/>
        <path d="m128 496h-96v-480h96zm0 0"/>
        <path d="m384 496h-96v-480h96zm0 0"/>
        <path d="m512 320h-32v-128h-9.375l-27.3125 27.3125-22.625-22.625 36.6875-36.6875h54.625zm0 0"/>
        <path d="m144 32h-128c-8.832031 0-16-7.167969-16-16s7.167969-16 16-16h128c8.832031 0 16 7.167969 16 16s-7.167969 16-16 16zm0 0"/>
        <path d="m144 512h-128c-8.832031 0-16-7.167969-16-16s7.167969-16 16-16h128c8.832031 0 16 7.167969 16 16s-7.167969 16-16 16zm0 0"/>
        <path d="m400 512h-128c-8.832031 0-16-7.167969-16-16s7.167969-16 16-16h128c8.832031 0 16 7.167969 16 16s-7.167969 16-16 16zm0 0"/>
        <path d="m400 32h-128c-8.832031 0-16-7.167969-16-16s7.167969-16 16-16h128c8.832031 0 16 7.167969 16 16s-7.167969 16-16 16zm0 0"/>
    </symbol>
    <symbol id="heading-2" viewBox="0 0 512 512">
        <path d="m112 240h192v32h-192zm0 0"/>
        <path d="m128 496h-96v-480h96zm0 0"/>
        <path d="m384 496h-96v-480h96zm0 0"/>
        <path d="m512 336h-96v-96h64v-32h-64v-32h96v96h-64v32h64zm0 0"/>
        <path d="m144 32h-128c-8.832031 0-16-7.167969-16-16s7.167969-16 16-16h128c8.832031 0 16 7.167969 16 16s-7.167969 16-16 16zm0 0"/>
        <path d="m144 512h-128c-8.832031 0-16-7.167969-16-16s7.167969-16 16-16h128c8.832031 0 16 7.167969 16 16s-7.167969 16-16 16zm0 0"/>
        <path d="m400 512h-128c-8.832031 0-16-7.167969-16-16s7.167969-16 16-16h128c8.832031 0 16 7.167969 16 16s-7.167969 16-16 16zm0 0"/>
        <path d="m400 32h-128c-8.832031 0-16-7.167969-16-16s7.167969-16 16-16h128c8.832031 0 16 7.167969 16 16s-7.167969 16-16 16zm0 0"/>
    </symbol>
    <symbol id="heading-3" viewBox="0 0 512 512">
        <path d="m112 240h192v32h-192zm0 0"/>
        <path d="m128 496h-96v-480h96zm0 0"/>
        <path d="m384 496h-96v-480h96zm0 0"/>
        <path d="m416 176v32h64v32h-32v32h32v32h-64v32h96v-160zm0 0"/>
        <path d="m144 32h-128c-8.832031 0-16-7.167969-16-16s7.167969-16 16-16h128c8.832031 0 16 7.167969 16 16s-7.167969 16-16 16zm0 0"/>
        <path d="m144 512h-128c-8.832031 0-16-7.167969-16-16s7.167969-16 16-16h128c8.832031 0 16 7.167969 16 16s-7.167969 16-16 16zm0 0"/>
        <path d="m400 512h-128c-8.832031 0-16-7.167969-16-16s7.167969-16 16-16h128c8.832031 0 16 7.167969 16 16s-7.167969 16-16 16zm0 0"/>
        <path d="m400 32h-128c-8.832031 0-16-7.167969-16-16s7.167969-16 16-16h128c8.832031 0 16 7.167969 16 16s-7.167969 16-16 16zm0 0"/>
    </symbol>
    <symbol id="heading-4" viewBox="0 0 512 512">
        <path d="m112 240h192v32h-192zm0 0"/>
        <path d="m128 496h-96v-480h96zm0 0"/>
        <path d="m384 496h-96v-480h96zm0 0"/>
        <path d="m496 320h-32v-32h-64v-36.433594l54.945312-91.566406h41.054688v96h16v32h-16zm-61.34375-64h29.34375v-48.910156zm0 0"/>
        <path d="m144 32h-128c-8.832031 0-16-7.167969-16-16s7.167969-16 16-16h128c8.832031 0 16 7.167969 16 16s-7.167969 16-16 16zm0 0"/>
        <path d="m144 512h-128c-8.832031 0-16-7.167969-16-16s7.167969-16 16-16h128c8.832031 0 16 7.167969 16 16s-7.167969 16-16 16zm0 0"/>
        <path d="m400 512h-128c-8.832031 0-16-7.167969-16-16s7.167969-16 16-16h128c8.832031 0 16 7.167969 16 16s-7.167969 16-16 16zm0 0"/>
        <path d="m400 32h-128c-8.832031 0-16-7.167969-16-16s7.167969-16 16-16h128c8.832031 0 16 7.167969 16 16s-7.167969 16-16 16zm0 0"/>
    </symbol>
    <symbol id="heading-5" viewBox="0 0 512 512">
        <path d="m112 240h192v32h-192zm0 0"/>
        <path d="m128 496h-96v-480h96zm0 0"/>
        <path d="m384 496h-96v-480h96zm0 0"/>
        <path d="m512 336h-96v-32h64v-32h-64v-96h96v32h-64v32h64zm0 0"/>
        <path d="m144 32h-128c-8.832031 0-16-7.167969-16-16s7.167969-16 16-16h128c8.832031 0 16 7.167969 16 16s-7.167969 16-16 16zm0 0"/>
        <path d="m144 512h-128c-8.832031 0-16-7.167969-16-16s7.167969-16 16-16h128c8.832031 0 16 7.167969 16 16s-7.167969 16-16 16zm0 0"/>
        <path d="m400 512h-128c-8.832031 0-16-7.167969-16-16s7.167969-16 16-16h128c8.832031 0 16 7.167969 16 16s-7.167969 16-16 16zm0 0"/>
        <path d="m400 32h-128c-8.832031 0-16-7.167969-16-16s7.167969-16 16-16h128c8.832031 0 16 7.167969 16 16s-7.167969 16-16 16zm0 0"/>
    </symbol>
    <symbol id="heading-6" viewBox="0 0 512 512">
        <path d="m112 240h192v32h-192zm0 0"/>
        <path d="m128 496h-96v-480h96zm0 0"/>
        <path d="m384 496h-96v-480h96zm0 0"/>
        <path d="m512 336h-96v-160h96v32h-64v32h64zm-64-32h32v-32h-32zm0 0"/>
        <path d="m144 32h-128c-8.832031 0-16-7.167969-16-16s7.167969-16 16-16h128c8.832031 0 16 7.167969 16 16s-7.167969 16-16 16zm0 0"/>
        <path d="m144 512h-128c-8.832031 0-16-7.167969-16-16s7.167969-16 16-16h128c8.832031 0 16 7.167969 16 16s-7.167969 16-16 16zm0 0"/>
        <path d="m400 512h-128c-8.832031 0-16-7.167969-16-16s7.167969-16 16-16h128c8.832031 0 16 7.167969 16 16s-7.167969 16-16 16zm0 0"/>
        <path d="m400 32h-128c-8.832031 0-16-7.167969-16-16s7.167969-16 16-16h128c8.832031 0 16 7.167969 16 16s-7.167969 16-16 16zm0 0"/>
    </symbol>
    <symbol id="bold" viewBox="0 0 202 202">
        <path d="M148.004,94.812c18.332-8.126,28.671-23.362,28.671-42.752c0-17.261-6.954-31.206-20.11-40.328C145.653,4.166,130.438,0,113.721,0H16.957v34h17v134h-17v34h90.905c14.819,0,35.992-2.245,52.705-12.94c16.241-10.393,24.476-26.161,24.476-46.868C185.043,118.342,171.057,100.763,148.004,94.812z M103.12,80H73.957V34h26.096c25.961,0,36.551,6.34,36.551,21.884C136.604,75.816,118.396,80,103.12,80z M73.957,115h30.838c28.537,0,40.177,7.436,40.177,25.663c0,18.14-13.987,27.337-41.572,27.337H73.957V115z"/>
    </symbol>
    <symbol id="align-left" viewBox="0 0 333 333">
        <path d="M323,31.5H10c-5.5,0-10,4.5-10,10s4.5,10,10,10h313c5.5,0,10-4.5,10-10S328.5,31.5,323,31.5z"/>
        <path d="M230,114.5H10c-5.5,0-10,4.5-10,10s4.5,10,10,10h220c5.5,0,10-4.5,10-10S235.5,114.5,230,114.5z"/>
        <path d="M323,198.5H10c-5.5,0-10,4.5-10,10s4.5,10,10,10h313c5.5,0,10-4.5,10-10S328.5,198.5,323,198.5z"/>
        <path d="M151,281.5H10c-5.5,0-10,4.5-10,10s4.5,10,10,10h141c5.5,0,10-4.5,10-10S156.5,281.5,151,281.5z"/>
    </symbol>
    <symbol id="align-center" viewBox="0 0 334.367 334.367">
        <path d="M10.449,52.245h313.469c5.771,0,10.449-4.678,10.449-10.449s-4.678-10.449-10.449-10.449H10.449C4.678,31.347,0,36.025,0,41.796S4.678,52.245,10.449,52.245z"/>
        <path d="M57.469,114.939c-5.771,0-10.449,4.678-10.449,10.449c0,5.771,4.678,10.449,10.449,10.449h219.429c5.771,0,10.449-4.678,10.449-10.449c0-5.771-4.678-10.449-10.449-10.449H57.469z"/>
        <path d="M323.918,198.531H10.449C4.678,198.531,0,203.209,0,208.98s4.678,10.449,10.449,10.449h313.469c5.771,0,10.449-4.678,10.449-10.449S329.689,198.531,323.918,198.531z"/>
        <path d="M237.714,282.122H96.653c-5.771,0-10.449,4.678-10.449,10.449s4.678,10.449,10.449,10.449h141.061c5.771,0,10.449-4.678,10.449-10.449S243.485,282.122,237.714,282.122z"/>
    </symbol>
    <symbol id="align-right" viewBox="0 0 333 333">
        <path d="M10,51.5h313c5.5,0,10-4.5,10-10s-4.5-10-10-10H10c-5.5,0-10,4.5-10,10S4.5,51.5,10,51.5z"/>
        <path d="M323,114.5H104c-5.5,0-10,4.5-10,10s4.5,10,10,10h219c5.5,0,10-4.5,10-10S328.5,114.5,323,114.5z"/>
        <path d="M10,218.5h313c5.5,0,10-4.5,10-10s-4.5-10-10-10H10c-5.5,0-10,4.5-10,10S4.5,218.5,10,218.5z"/>
        <path d="M323,281.5H182c-5.5,0-10,4.5-10,10s4.5,10,10,10h141c5.5,0,10-4.5,10-10S328.5,281.5,323,281.5z"/>
    </symbol>
    <symbol id="align-full" viewBox="0 0 334.367 334.367">
        <path d="M10.449,52.245h313.469c5.771,0,10.449-4.678,10.449-10.449s-4.678-10.449-10.449-10.449H10.449
				C4.678,31.347,0,36.025,0,41.796S4.678,52.245,10.449,52.245z"/>
        <path d="M323.918,114.939H10.449C4.678,114.939,0,119.617,0,125.388c0,5.771,4.678,10.449,10.449,10.449h313.469
				c5.771,0,10.449-4.678,10.449-10.449C334.367,119.617,329.689,114.939,323.918,114.939z"/>
        <path d="M323.918,198.531H10.449C4.678,198.531,0,203.209,0,208.98s4.678,10.449,10.449,10.449h313.469
				c5.771,0,10.449-4.678,10.449-10.449S329.689,198.531,323.918,198.531z"/>
        <path d="M323.918,282.122H10.449C4.678,282.122,0,286.801,0,292.571s4.678,10.449,10.449,10.449h313.469
				c5.771,0,10.449-4.678,10.449-10.449S329.689,282.122,323.918,282.122z"/>
    </symbol>
    <symbol id="italic" viewBox="0 0 512 512">
        <path d="m466.71875 16-288 480h-117.4375l288-480zm0 0"/>
        <path d="m224 512h-208c-8.832031 0-16-7.167969-16-16s7.167969-16 16-16h208c8.832031 0 16 7.167969 16 16s-7.167969 16-16 16zm0 0"/>
        <path d="m496 32h-208c-8.832031 0-16-7.167969-16-16s7.167969-16 16-16h208c8.832031 0 16 7.167969 16 16s-7.167969 16-16 16zm0 0"/>
    </symbol>
    <symbol id="underline" viewBox="0 0 512 512">
        <path d="m256 448c-51.3125 0-99.535156-19.953125-135.792969-56.207031-36.253906-36.257813-56.207031-84.480469-56.207031-135.792969v-256h96v256c0 52.945312 43.054688 96 96 96s96-43.054688 96-96v-256h96v256c0 105.871094-86.128906 192-192 192zm0 0"
        />
        <path d="m64 480h384v32h-384zm0 0"/>
        <path d="m0 480h32v32h-32zm0 0"/>
        <path d="m480 480h32v32h-32zm0 0"/>
    </symbol>
</svg>
