<svg xmlns="http://www.w3.org/2000/svg" xmlns:xlink="http://www.w3.org/1999/xlink"> <symbol id="go-back-arrow" viewBox="0 0 49.499 49.499"> <path d="M8.143,10.804C7.473,11.682,7,11.842,7,11.099V9.751c0-1.933-1.567-3.5-3.5-3.5S0,7.818,0,9.751v12c0,1.933,1.567,3.5,3.5,3.5h12c1.933,0,3.5-1.567,3.5-3.5s-1.567-3.5-3.5-3.5c0,0-0.579,0-1.294,0s-0.916-0.817-0.31-1.74c2.752-4.187,7.47-6.795,12.569-6.795c8.29,0,15.034,6.744,15.034,15.034c0,8.289-6.744,15.033-15.034,15.033c-2.209,0-4,1.791-4,4s1.791,4,4,4c12.701,0.001,23.034-10.332,23.034-23.032c0-12.701-10.333-23.034-23.034-23.034C19.204,1.716,12.445,5.167,8.143,10.804z"/> </symbol> <symbol id="t-icon" viewBox="0 0 278 278"> <path d="M254.833,0h-98.5h-33h-99.5C15.549,0,8.5,6.716,8.5,15v33c0,8.284,6.716,15,15,15s15-6.716,15-15V30h69v218H89.833c-8.284,0-15,6.716-15,15s6.716,15,15,15h99c8.284,0,15-6.716,15-15s-6.716-15-15-15H170.5V30h69v18c0,8.284,6.716,15,15,15s15-6.716,15-15V15C269.5,6.716,263.117,0,254.833,0z"/> </symbol> <symbol id="paragraph" viewBox="0 0 511.998 511.998"> <g> <path d="m406.998 480.999h-180c-8.291 0-15-6.709-15-15v-60c0-8.291 6.709-15 15-15h45v-270h-60v45c0 8.291-6.709 15-15 15h-60c-8.291 0-15-6.709-15-15v-120c0-8.291 6.709-15 15-15h360c8.291 0 15 6.709 15 15v120c0 8.291-6.709 15-15 15h-60c-8.291 0-15-6.709-15-15v-45h-60v270h45c8.291 0 15 6.709 15 15v60c0 8.291-6.709 15-15 15z"/> </g> <path d="m148.225 368.924c-2.607-4.878-7.69-7.925-13.228-7.925h-45v-315c0-8.291-6.709-15-15-15s-15 6.709-15 15v315h-45c-5.537 0-10.62 3.047-13.228 7.925s-2.314 10.796.747 15.396l60 90c2.783 4.175 7.471 6.68 12.48 6.68s9.697-2.505 12.48-6.68l60-90c3.064-4.6 3.357-10.518.749-15.396z"/> </symbol> <symbol id="image" xmlns="http://www.w3.org/2000/svg" xmlns:xlink="http://www.w3.org/1999/xlink" viewBox="0 0 512 512"> <path d="M446.575,0H65.425C29.349,0,0,29.35,0,65.426v381.149C0,482.65,29.349,512,65.425,512h381.15C482.651,512,512,482.65,512,446.574V65.426C512,29.35,482.651,0,446.575,0z M481.842,446.575c0,19.447-15.821,35.267-35.267,35.267H65.425c-19.447,0-35.268-15.821-35.268-35.267v-55.007l99.255-84.451c3.622-3.082,8.906-3.111,12.562-0.075l62.174,51.628c5.995,4.977,14.795,4.569,20.304-0.946L372.181,209.77c2.67-2.675,5.783-2.935,7.408-2.852c1.62,0.083,4.695,0.661,7.078,3.596l95.176,117.19V446.575z M481.842,279.865l-71.766-88.366c-7.117-8.764-17.666-14.122-28.942-14.701c-11.268-0.57-22.317,3.672-30.294,11.662L212.832,326.681l-51.59-42.839c-14.959-12.422-36.563-12.293-51.373,0.308l-79.712,67.822V65.426c0-19.447,15.821-35.268,35.268-35.268h381.15c19.447,0,35.267,15.821,35.267,35.268V279.865z"/> <path d="M161.174,62.995c-40.095,0-72.713,32.62-72.713,72.713c0,40.094,32.619,72.713,72.713,72.713s72.713-32.619,72.713-72.713S201.269,62.995,161.174,62.995z M161.174,178.264c-23.466,0-42.556-19.091-42.556-42.556c0-23.466,19.09-42.556,42.556-42.556c23.466,0,42.556,19.091,42.556,42.556S184.64,178.264,161.174,178.264z"/> </symbol> <symbol id="heading-2" viewBox="0 0 512 512"> <path d="m112 240h192v32h-192zm0 0"/> <path d="m128 496h-96v-480h96zm0 0"/> <path d="m384 496h-96v-480h96zm0 0"/> <path d="m512 336h-96v-96h64v-32h-64v-32h96v96h-64v32h64zm0 0"/> <g> <path d="m144 32h-128c-8.832031 0-16-7.167969-16-16s7.167969-16 16-16h128c8.832031 0 16 7.167969 16 16s-7.167969 16-16 16zm0 0"/> <path d="m144 512h-128c-8.832031 0-16-7.167969-16-16s7.167969-16 16-16h128c8.832031 0 16 7.167969 16 16s-7.167969 16-16 16zm0 0"/> <path d="m400 512h-128c-8.832031 0-16-7.167969-16-16s7.167969-16 16-16h128c8.832031 0 16 7.167969 16 16s-7.167969 16-16 16zm0 0"/> <path d="m400 32h-128c-8.832031 0-16-7.167969-16-16s7.167969-16 16-16h128c8.832031 0 16 7.167969 16 16s-7.167969 16-16 16zm0 0"/> </g> </symbol> <symbol id="heading-3" viewBox="0 0 512 512"> <path d="m112 240h192v32h-192zm0 0"/> <path d="m128 496h-96v-480h96zm0 0"/> <path d="m384 496h-96v-480h96zm0 0"/> <path d="m416 176v32h64v32h-32v32h32v32h-64v32h96v-160zm0 0"/> <g> <path d="m144 32h-128c-8.832031 0-16-7.167969-16-16s7.167969-16 16-16h128c8.832031 0 16 7.167969 16 16s-7.167969 16-16 16zm0 0"/> <path d="m144 512h-128c-8.832031 0-16-7.167969-16-16s7.167969-16 16-16h128c8.832031 0 16 7.167969 16 16s-7.167969 16-16 16zm0 0"/> <path d="m400 512h-128c-8.832031 0-16-7.167969-16-16s7.167969-16 16-16h128c8.832031 0 16 7.167969 16 16s-7.167969 16-16 16zm0 0"/> <path d="m400 32h-128c-8.832031 0-16-7.167969-16-16s7.167969-16 16-16h128c8.832031 0 16 7.167969 16 16s-7.167969 16-16 16zm0 0"/> </g> </symbol> <symbol id="heading-4" viewBox="0 0 512 512"> <path d="m112 240h192v32h-192zm0 0"/> <path d="m128 496h-96v-480h96zm0 0"/> <path d="m384 496h-96v-480h96zm0 0"/> <path d="m496 320h-32v-32h-64v-36.433594l54.945312-91.566406h41.054688v96h16v32h-16zm-61.34375-64h29.34375v-48.910156zm0 0"/> <g> <path d="m144 32h-128c-8.832031 0-16-7.167969-16-16s7.167969-16 16-16h128c8.832031 0 16 7.167969 16 16s-7.167969 16-16 16zm0 0"/> <path d="m144 512h-128c-8.832031 0-16-7.167969-16-16s7.167969-16 16-16h128c8.832031 0 16 7.167969 16 16s-7.167969 16-16 16zm0 0"/> <path d="m400 512h-128c-8.832031 0-16-7.167969-16-16s7.167969-16 16-16h128c8.832031 0 16 7.167969 16 16s-7.167969 16-16 16zm0 0"/> <path d="m400 32h-128c-8.832031 0-16-7.167969-16-16s7.167969-16 16-16h128c8.832031 0 16 7.167969 16 16s-7.167969 16-16 16zm0 0"/> </g> </symbol> <symbol id="bold" viewBox="0 0 202 202"> <path d="M148.004,94.812c18.332-8.126,28.671-23.362,28.671-42.752c0-17.261-6.954-31.206-20.11-40.328C145.653,4.166,130.438,0,113.721,0H16.957v34h17v134h-17v34h90.905c14.819,0,35.992-2.245,52.705-12.94c16.241-10.393,24.476-26.161,24.476-46.868C185.043,118.342,171.057,100.763,148.004,94.812z M103.12,80H73.957V34h26.096c25.961,0,36.551,6.34,36.551,21.884C136.604,75.816,118.396,80,103.12,80z M73.957,115h30.838c28.537,0,40.177,7.436,40.177,25.663c0,18.14-13.987,27.337-41.572,27.337H73.957V115z"/> </symbol> <symbol id="align-center" viewBox="0 0 334.367 334.367"> <path d="M10.449,52.245h313.469c5.771,0,10.449-4.678,10.449-10.449s-4.678-10.449-10.449-10.449H10.449C4.678,31.347,0,36.025,0,41.796S4.678,52.245,10.449,52.245z"/> <path d="M57.469,114.939c-5.771,0-10.449,4.678-10.449,10.449c0,5.771,4.678,10.449,10.449,10.449h219.429c5.771,0,10.449-4.678,10.449-10.449c0-5.771-4.678-10.449-10.449-10.449H57.469z"/> <path d="M323.918,198.531H10.449C4.678,198.531,0,203.209,0,208.98s4.678,10.449,10.449,10.449h313.469c5.771,0,10.449-4.678,10.449-10.449S329.689,198.531,323.918,198.531z"/> <path d="M237.714,282.122H96.653c-5.771,0-10.449,4.678-10.449,10.449s4.678,10.449,10.449,10.449h141.061c5.771,0,10.449-4.678,10.449-10.449S243.485,282.122,237.714,282.122z"/> </symbol> <symbol id="align-left" viewBox="0 0 333 333"> <path d="M323,31.5H10c-5.5,0-10,4.5-10,10s4.5,10,10,10h313c5.5,0,10-4.5,10-10S328.5,31.5,323,31.5z"/> <path d="M230,114.5H10c-5.5,0-10,4.5-10,10s4.5,10,10,10h220c5.5,0,10-4.5,10-10S235.5,114.5,230,114.5z"/> <path d="M323,198.5H10c-5.5,0-10,4.5-10,10s4.5,10,10,10h313c5.5,0,10-4.5,10-10S328.5,198.5,323,198.5z"/> <path d="M151,281.5H10c-5.5,0-10,4.5-10,10s4.5,10,10,10h141c5.5,0,10-4.5,10-10S156.5,281.5,151,281.5z"/> </symbol></svg>
